<?xml version="1.0" standalone="no"?>
<!DOCTYPE svg PUBLIC "-//W3C//DTD SVG 20010904//EN"
 "http://www.w3.org/TR/2001/REC-SVG-20010904/DTD/svg10.dtd">
<svg version="1.0" xmlns="http://www.w3.org/2000/svg"
 width="1714.000000pt" height="674.000000pt" viewBox="0 0 1714.000000 674.000000"
 preserveAspectRatio="xMidYMid meet">

<g transform="translate(0.000000,674.000000) scale(0.100000,-0.100000)"
fill="#000000" stroke="none">
<path d="M1774 6576 c-377 -62 -642 -303 -807 -736 -110 -287 -160 -577 -159
-930 0 -273 43 -513 131 -725 105 -257 278 -420 543 -514 102 -36 104 -36 268
-36 144 0 175 3 245 24 115 34 241 90 323 145 210 139 331 391 320 661 -5 112
-23 160 -65 176 -38 14 -66 -9 -110 -93 -27 -53 -63 -99 -133 -168 -103 -103
-178 -149 -280 -171 -67 -14 -217 -6 -286 15 -127 40 -236 145 -319 311 -151
301 -151 791 1 1293 72 239 187 398 330 458 49 21 166 22 214 2 130 -55 177
-196 111 -333 -32 -68 -59 -96 -113 -118 -50 -21 -61 -47 -56 -127 4 -50 13
-82 38 -129 63 -117 141 -157 294 -149 72 4 103 11 149 32 157 75 247 249 247
481 0 164 -41 287 -134 406 -72 92 -173 149 -361 204 -110 32 -270 41 -391 21z"/>
<path d="M4497 6246 c-99 -27 -120 -68 -125 -246 -3 -115 -1 -140 15 -170 21
-41 44 -48 70 -22 33 35 61 42 170 43 170 0 205 22 224 140 14 81 -1 166 -37
209 -47 55 -201 77 -317 46z"/>
<path d="M7601 6246 c-100 -33 -125 -94 -119 -293 3 -111 5 -125 26 -145 19
-19 25 -21 40 -10 71 51 74 52 187 53 123 0 169 12 197 49 27 37 41 139 28
208 -20 110 -71 145 -220 149 -62 2 -110 -2 -139 -11z"/>
<path d="M6900 6061 c-124 -39 -243 -121 -275 -187 -15 -33 -16 -56 -10 -210
7 -165 6 -174 -11 -175 -11 -1 -47 -2 -82 -3 -39 -2 -68 -8 -78 -17 -20 -21
-32 -202 -14 -224 10 -11 34 -15 108 -15 l95 0 -7 -267 c-4 -148 -14 -369 -22
-493 -15 -232 -51 -635 -59 -659 -3 -7 -1 -30 5 -51 11 -42 52 -82 109 -106
112 -48 374 -75 407 -42 15 15 15 23 1 110 -32 190 -41 387 -41 953 l-1 560
97 5 c90 5 99 7 128 35 39 37 80 124 80 169 0 51 -19 65 -72 55 -24 -4 -85 -8
-137 -9 l-94 0 7 168 c4 92 11 218 17 281 7 83 6 117 -2 127 -16 19 -82 17
-149 -5z"/>
<path d="M10443 5561 c-33 -15 -42 -40 -33 -96 20 -115 32 -531 27 -840 -7
-355 -18 -533 -47 -766 -26 -200 -26 -195 10 -214 60 -31 202 -12 325 44 90
41 122 66 147 114 20 40 20 46 9 182 -18 209 -31 788 -22 967 7 146 10 161 37
215 52 102 161 150 281 125 117 -24 177 -98 192 -236 13 -119 -2 -228 -69
-516 -91 -388 -99 -557 -35 -697 66 -145 218 -224 435 -227 149 -2 180 30 121
123 -39 60 -66 146 -82 250 -15 105 -7 428 16 656 9 88 17 237 18 330 2 150
-1 178 -20 240 -69 220 -262 339 -548 339 -169 -1 -271 -30 -369 -107 l-39
-31 -16 24 c-62 94 -113 122 -231 127 -47 1 -95 -1 -107 -6z"/>
<path d="M2896 5531 c-18 -19 -18 -27 -7 -128 42 -366 29 -1178 -25 -1538 -29
-200 -29 -181 0 -200 64 -42 218 -26 344 35 122 59 158 117 142 227 -5 32 -14
214 -21 404 -14 392 -4 632 30 753 43 155 194 225 287 132 60 -60 62 -118 14
-306 -41 -157 -11 -255 95 -309 43 -22 66 -26 160 -29 98 -3 114 -1 144 18
l34 21 -7 105 c-4 57 -2 173 4 256 13 176 6 246 -36 339 -65 145 -232 226
-444 217 -125 -6 -195 -33 -315 -122 -19 -15 -23 -13 -55 31 -52 71 -127 106
-238 111 -78 4 -89 2 -106 -17z"/>
<path d="M5668 5530 c-213 -34 -382 -140 -456 -286 -59 -118 -79 -299 -44
-412 48 -153 161 -246 435 -357 92 -38 213 -121 250 -173 25 -35 32 -55 35
-108 4 -57 1 -72 -27 -129 -43 -88 -91 -117 -202 -123 -59 -3 -91 0 -123 12
-57 22 -121 91 -136 147 -13 49 -6 141 17 213 12 38 13 53 4 73 -11 24 -15 25
-79 21 -125 -7 -237 -83 -290 -196 -23 -49 -27 -70 -27 -152 1 -105 12 -151
58 -223 56 -91 179 -159 346 -192 126 -26 335 -17 456 19 199 60 302 141 380
299 117 235 91 482 -70 655 -75 81 -183 152 -375 245 -169 82 -216 119 -230
183 -28 125 66 212 240 221 70 4 95 1 141 -16 69 -26 136 -73 151 -106 43 -94
143 21 155 178 5 71 5 74 -26 109 -36 41 -56 50 -171 79 -97 23 -319 34 -412
19z"/>
<path d="M4590 5505 c-195 -53 -302 -101 -334 -149 -24 -37 -20 -52 20 -88
109 -99 134 -267 109 -749 -8 -173 -20 -403 -25 -512 -10 -199 -4 -273 24
-296 23 -19 141 -61 212 -76 87 -18 159 -19 220 -4 62 16 70 36 45 109 -11 32
-26 112 -32 177 -16 161 -6 897 16 1259 10 155 15 293 11 308 -4 16 -17 31
-32 36 -42 16 -144 10 -234 -15z"/>
<path d="M7705 5506 c-235 -62 -355 -125 -355 -188 0 -10 16 -32 36 -50 82
-75 117 -211 117 -458 0 -85 -10 -345 -22 -577 -21 -425 -20 -489 11 -519 23
-22 132 -62 218 -80 126 -25 258 -9 274 33 3 8 -3 40 -14 72 -35 106 -43 252
-37 729 3 249 12 568 22 719 10 149 15 282 11 296 -13 52 -113 61 -261 23z"/>
<path d="M9640 5413 c-53 -9 -230 -106 -331 -183 -197 -149 -373 -343 -600
-660 -240 -336 -471 -730 -653 -1117 l-74 -158 -158 -5 c-88 -3 -171 -11 -186
-17 -44 -20 -107 -83 -160 -161 -94 -139 -112 -212 -62 -251 25 -19 40 -21
200 -21 121 0 174 -3 174 -11 0 -6 -18 -68 -41 -138 -208 -648 -230 -1171 -63
-1503 104 -207 339 -302 590 -238 123 31 276 110 337 173 102 106 161 245 173
411 11 133 -11 153 -142 129 -74 -14 -87 -13 -139 1 -69 21 -126 74 -178 167
-59 105 -67 154 -68 409 0 225 10 341 46 511 8 41 15 77 15 82 0 4 280 7 623
7 598 0 624 -1 644 -19 22 -21 22 -21 53 -321 65 -626 158 -1197 231 -1424 35
-109 53 -128 148 -166 119 -46 286 -36 530 35 295 85 371 161 267 269 -122
125 -259 532 -391 1161 -59 279 -116 621 -150 890 -141 1137 -278 1847 -392
2043 -51 87 -134 123 -243 105z m-341 -859 c46 -59 99 -284 165 -704 66 -422
81 -539 67 -553 -9 -9 -142 -11 -544 -8 -292 1 -533 4 -534 5 -6 5 96 243 155
362 196 394 573 923 659 924 6 0 21 -12 32 -26z"/>
<path d="M12751 3581 c-64 -22 -85 -47 -102 -116 -16 -65 -16 -239 0 -287 15
-46 44 -58 74 -30 40 36 65 42 169 42 129 0 170 11 200 53 21 29 23 43 23 142
0 98 -2 113 -22 141 -35 49 -84 67 -193 71 -75 3 -107 -1 -149 -16z"/>
<path d="M11167 2878 c-23 -17 -23 -29 -6 -158 11 -79 14 -237 14 -630 -1
-544 -9 -694 -51 -950 -9 -54 -14 -106 -11 -115 4 -9 22 -22 42 -30 132 -56
432 57 462 173 3 14 1 93 -6 174 -18 228 -25 732 -12 888 13 161 30 230 70
284 33 47 100 86 145 86 44 0 97 -30 123 -69 31 -46 30 -129 -2 -252 -54 -205
-14 -313 133 -355 75 -22 207 -22 249 -1 42 22 46 39 38 155 -4 53 -2 161 4
240 17 215 -8 325 -94 421 -70 77 -218 131 -360 131 -124 0 -227 -36 -320
-110 l-40 -32 -15 23 c-61 93 -134 131 -259 137 -62 3 -91 0 -104 -10z"/>
<path d="M13945 2869 c-98 -13 -240 -55 -308 -91 -68 -36 -125 -96 -164 -170
-23 -45 -27 -65 -28 -134 0 -71 3 -85 27 -122 15 -22 49 -54 75 -69 45 -26 55
-28 163 -28 97 0 120 3 148 20 41 25 48 51 32 124 -11 53 -10 63 8 104 66 149
320 173 390 37 18 -36 22 -61 22 -136 0 -51 -4 -104 -9 -117 -12 -32 -86 -63
-241 -100 -258 -61 -397 -119 -526 -220 -158 -124 -236 -283 -238 -487 -3
-283 164 -464 440 -478 143 -7 252 27 346 107 78 67 112 204 74 296 -23 55
-46 60 -112 25 -102 -54 -193 -37 -245 46 -32 52 -34 178 -4 239 55 112 216
214 386 243 52 9 103 13 113 9 17 -7 17 -19 11 -180 -3 -94 -7 -278 -8 -407
-2 -212 0 -239 17 -273 45 -90 208 -127 421 -97 75 11 115 31 115 57 0 9 -16
39 -35 67 -79 116 -95 267 -95 911 0 553 0 556 -71 645 -67 85 -152 127 -333
166 -89 19 -281 26 -371 13z"/>
<path d="M15488 2865 c-269 -51 -441 -204 -478 -427 -7 -39 -10 -114 -8 -167
3 -80 9 -105 32 -151 56 -113 182 -213 346 -275 171 -65 304 -159 341 -240 54
-117 -23 -283 -145 -314 -125 -31 -242 3 -301 87 -37 54 -45 146 -21 241 30
119 20 136 -77 129 -114 -9 -224 -84 -274 -186 -25 -52 -28 -67 -28 -167 0
-104 2 -114 33 -177 39 -80 92 -129 186 -174 95 -45 171 -64 292 -73 254 -19
505 58 632 193 114 122 167 274 160 462 -4 103 -7 116 -41 189 -75 156 -175
241 -443 374 -131 65 -190 100 -219 130 -38 40 -40 45 -40 104 0 80 26 119
104 155 43 20 76 27 146 30 89 4 91 3 173 -38 61 -31 89 -51 103 -75 24 -41
43 -49 77 -33 35 17 69 89 83 175 10 64 10 75 -7 109 -24 50 -74 77 -189 105
-116 28 -326 35 -437 14z"/>
<path d="M12895 2855 c-243 -61 -385 -133 -385 -196 0 -10 16 -33 36 -51 43
-40 69 -88 90 -168 31 -121 32 -253 7 -786 -27 -567 -27 -580 29 -614 17 -10
70 -31 117 -47 72 -24 103 -28 191 -28 155 0 181 23 145 124 -8 23 -20 92 -26
152 -16 152 -6 966 16 1302 9 142 14 269 11 281 -3 12 -17 28 -31 34 -33 15
-135 14 -200 -3z"/>
</g>
</svg>
