<svg width="400" height="360" viewBox="0 0 400 360" fill="none" xmlns="http://www.w3.org/2000/svg">
<g filter="url(#filter0_d_1_12)">
<mask id="path-1-outside-1_1_12" maskUnits="userSpaceOnUse" x="61.1274" y="21.1274" width="129" height="210" fill="black">
<rect fill="white" x="61.1274" y="21.1274" width="129" height="210"/>
<path d="M188.878 48.2274L162.778 22.1274H88.6778L62.8778 48.2274L62.8778 203.327L88.6778 229.427H162.778L188.878 203.327V181.727L159.178 151.727V203.327H92.5778L92.5778 48.2274H159.178V70.1274L188.878 99.8274V48.2274Z"/>
</mask>
<path d="M188.878 48.2274L162.778 22.1274H88.6778L62.8778 48.2274L62.8778 203.327L88.6778 229.427H162.778L188.878 203.327V181.727L159.178 151.727V203.327H92.5778L92.5778 48.2274H159.178V70.1274L188.878 99.8274V48.2274Z" fill="#7A11B2"/>
<path d="M188.878 48.2274L189.585 47.5203L189.878 47.8132V48.2274H188.878ZM162.778 22.1274V21.1274H163.192L163.485 21.4203L162.778 22.1274ZM88.6778 22.1274L87.9667 21.4244L88.2602 21.1274H88.6778V22.1274ZM62.8778 48.2274H61.8778L61.8778 47.8166L62.1667 47.5244L62.8778 48.2274ZM62.8778 203.327L62.1667 204.03L61.8778 203.738V203.327H62.8778ZM88.6778 229.427V230.427H88.2602L87.9667 230.13L88.6778 229.427ZM162.778 229.427L163.485 230.135L163.192 230.427H162.778V229.427ZM188.878 203.327H189.878V203.742L189.585 204.034L188.878 203.327ZM188.878 181.727L189.588 181.024L189.878 181.316V181.727H188.878ZM159.178 151.727H158.178V149.296L159.888 151.024L159.178 151.727ZM159.178 203.327H160.178V204.327H159.178V203.327ZM92.5778 203.327V204.327H91.5778V203.327H92.5778ZM92.5778 48.2274H91.5778V47.2274H92.5778V48.2274ZM159.178 48.2274V47.2274H160.178V48.2274H159.178ZM159.178 70.1274L158.471 70.8345L158.178 70.5416V70.1274H159.178ZM188.878 99.8274H189.878V102.242L188.171 100.534L188.878 99.8274ZM188.171 48.9345L162.071 22.8345L163.485 21.4203L189.585 47.5203L188.171 48.9345ZM162.778 23.1274H88.6778V21.1274H162.778V23.1274ZM89.389 22.8304L63.589 48.9304L62.1667 47.5244L87.9667 21.4244L89.389 22.8304ZM63.8778 48.2274L63.8778 203.327H61.8778L61.8778 48.2274H63.8778ZM63.589 202.624L89.389 228.724L87.9667 230.13L62.1667 204.03L63.589 202.624ZM88.6778 228.427H162.778V230.427H88.6778V228.427ZM162.071 228.72L188.171 202.62L189.585 204.034L163.485 230.135L162.071 228.72ZM187.878 203.327V181.727H189.878V203.327H187.878ZM188.167 182.431L158.467 152.431L159.888 151.024L189.588 181.024L188.167 182.431ZM160.178 151.727V203.327H158.178V151.727H160.178ZM159.178 204.327H92.5778V202.327H159.178V204.327ZM91.5778 203.327L91.5778 48.2274H93.5778L93.5778 203.327H91.5778ZM92.5778 47.2274H159.178V49.2274H92.5778V47.2274ZM160.178 48.2274V70.1274H158.178V48.2274H160.178ZM159.885 69.4203L189.585 99.1203L188.171 100.534L158.471 70.8345L159.885 69.4203ZM187.878 99.8274V48.2274H189.878V99.8274H187.878Z" fill="#EDEDED" mask="url(#path-1-outside-1_1_12)"/>
</g>
<g filter="url(#filter1_d_1_12)">
<mask id="path-3-outside-2_1_12" maskUnits="userSpaceOnUse" x="213" y="129" width="132" height="210" fill="black">
<rect fill="white" x="213" y="129" width="132" height="210"/>
<path d="M343.743 338H314.343V260.3H243.843V338H214.143V156.8L240.243 130.7H343.743V338ZM332.943 156.8H243.843V256.7L266.343 234.2H314.343V175.4L332.943 156.8Z"/>
</mask>
<path d="M343.743 338H314.343V260.3H243.843V338H214.143V156.8L240.243 130.7H343.743V338ZM332.943 156.8H243.843V256.7L266.343 234.2H314.343V175.4L332.943 156.8Z" fill="#250069"/>
<path d="M343.743 338V339H344.743V338H343.743ZM314.343 338H313.343V339H314.343V338ZM314.343 260.3H315.343V259.3H314.343V260.3ZM243.843 260.3V259.3H242.843V260.3H243.843ZM243.843 338V339H244.843V338H243.843ZM214.143 338H213.143V339H214.143V338ZM214.143 156.8L213.436 156.093L213.143 156.386V156.8H214.143ZM240.243 130.7V129.7H239.829L239.536 129.993L240.243 130.7ZM343.743 130.7H344.743V129.7H343.743V130.7ZM332.943 156.8L333.65 157.507L335.357 155.8H332.943V156.8ZM243.843 156.8V155.8H242.843V156.8H243.843ZM243.843 256.7H242.843V259.114L244.55 257.407L243.843 256.7ZM266.343 234.2V233.2H265.929L265.636 233.493L266.343 234.2ZM314.343 234.2V235.2H315.343V234.2H314.343ZM314.343 175.4L313.636 174.693L313.343 174.986V175.4H314.343ZM343.743 337H314.343V339H343.743V337ZM315.343 338V260.3H313.343V338H315.343ZM314.343 259.3H243.843V261.3H314.343V259.3ZM242.843 260.3V338H244.843V260.3H242.843ZM243.843 337H214.143V339H243.843V337ZM215.143 338V156.8H213.143V338H215.143ZM214.85 157.507L240.95 131.407L239.536 129.993L213.436 156.093L214.85 157.507ZM240.243 131.7H343.743V129.7H240.243V131.7ZM342.743 130.7V338H344.743V130.7H342.743ZM332.943 155.8H243.843V157.8H332.943V155.8ZM242.843 156.8V256.7H244.843V156.8H242.843ZM244.55 257.407L267.05 234.907L265.636 233.493L243.136 255.993L244.55 257.407ZM266.343 235.2H314.343V233.2H266.343V235.2ZM315.343 234.2V175.4H313.343V234.2H315.343ZM315.05 176.107L333.65 157.507L332.236 156.093L313.636 174.693L315.05 176.107Z" fill="#EDEDED" mask="url(#path-3-outside-2_1_12)"/>
</g>
<defs>
<filter id="filter0_d_1_12" x="58.8778" y="22.1274" width="134" height="215.3" filterUnits="userSpaceOnUse" color-interpolation-filters="sRGB">
<feFlood flood-opacity="0" result="BackgroundImageFix"/>
<feColorMatrix in="SourceAlpha" type="matrix" values="0 0 0 0 0 0 0 0 0 0 0 0 0 0 0 0 0 0 127 0" result="hardAlpha"/>
<feOffset dy="4"/>
<feGaussianBlur stdDeviation="2"/>
<feComposite in2="hardAlpha" operator="out"/>
<feColorMatrix type="matrix" values="0 0 0 0 0 0 0 0 0 0 0 0 0 0 0 0 0 0 0.25 0"/>
<feBlend mode="normal" in2="BackgroundImageFix" result="effect1_dropShadow_1_12"/>
<feBlend mode="normal" in="SourceGraphic" in2="effect1_dropShadow_1_12" result="shape"/>
</filter>
<filter id="filter1_d_1_12" x="210.143" y="130.7" width="137.6" height="215.3" filterUnits="userSpaceOnUse" color-interpolation-filters="sRGB">
<feFlood flood-opacity="0" result="BackgroundImageFix"/>
<feColorMatrix in="SourceAlpha" type="matrix" values="0 0 0 0 0 0 0 0 0 0 0 0 0 0 0 0 0 0 127 0" result="hardAlpha"/>
<feOffset dy="4"/>
<feGaussianBlur stdDeviation="2"/>
<feComposite in2="hardAlpha" operator="out"/>
<feColorMatrix type="matrix" values="0 0 0 0 0 0 0 0 0 0 0 0 0 0 0 0 0 0 0.25 0"/>
<feBlend mode="normal" in2="BackgroundImageFix" result="effect1_dropShadow_1_12"/>
<feBlend mode="normal" in="SourceGraphic" in2="effect1_dropShadow_1_12" result="shape"/>
</filter>
</defs>
</svg>
