<svg width="625" height="828" viewBox="0 0 625 828" fill="none" xmlns="http://www.w3.org/2000/svg">
<g filter="url(#filter0_d_5_15)">
<mask id="path-1-outside-1_5_15" maskUnits="userSpaceOnUse" x="205" y="185" width="406" height="530" fill="black">
<rect fill="white" x="205" y="185" width="406" height="530"/>
<path d="M407.365 295.9C370.498 342.099 343.898 388.299 327.565 434.499H328.265C393.132 434.499 430.232 434.733 439.565 435.2C449.365 435.2 454.732 434.733 455.665 433.799C456.598 432.866 457.298 431.699 457.765 430.3C449.832 372.9 443.532 333.933 438.865 313.399C434.198 292.399 429.532 281.899 424.865 281.899C420.198 281.899 414.365 286.566 407.365 295.9ZM345.065 625.6L360.465 622.8C365.132 622.8 367.465 625.366 367.465 630.5C367.465 646.833 364.198 660.6 357.665 671.8C351.132 683 342.965 690.933 333.165 695.6C317.298 703.533 303.765 707.5 292.565 707.5C271.098 707.5 254.998 699.566 244.265 683.7C233.532 667.366 228.165 643.1 228.165 610.9C228.165 578.233 237.032 536 254.765 484.199H214.165C209.032 484.199 206.465 481.633 206.465 476.499C206.465 471.366 210.432 463.2 218.365 451.999C226.298 440.333 234.698 434.499 243.565 434.499H275.065C308.198 360.766 347.165 297.066 391.965 243.4C403.632 229.399 417.865 216.333 434.665 204.199C451.932 192.066 465.232 185.999 474.565 185.999C483.898 185.999 490.898 190.199 495.565 198.6C507.698 218.2 521.932 289.833 538.265 413.499C543.865 466.7 553.432 521.766 566.965 578.7C580.965 635.166 593.798 668.066 605.465 677.4C608.265 679.266 609.665 681.6 609.665 684.4C609.665 691.4 599.632 697.933 579.565 704C559.965 710.066 544.798 713.1 534.065 713.1C523.798 713.1 515.865 711.7 510.265 708.9C504.665 706.566 501.165 704 499.765 701.2C491.365 683 482.965 639.6 474.565 571L470.365 538.1C468.498 516.166 466.632 499.6 464.765 488.4L459.865 484.9L313.565 484.199C307.965 507.999 305.165 528.766 305.165 546.5C305.165 564.233 305.632 577.3 306.565 585.7C307.965 593.633 311.932 602.266 318.465 611.6C324.998 620.933 333.865 625.6 345.065 625.6Z"/>
</mask>
<path d="M407.365 295.9C370.498 342.099 343.898 388.299 327.565 434.499H328.265C393.132 434.499 430.232 434.733 439.565 435.2C449.365 435.2 454.732 434.733 455.665 433.799C456.598 432.866 457.298 431.699 457.765 430.3C449.832 372.9 443.532 333.933 438.865 313.399C434.198 292.399 429.532 281.899 424.865 281.899C420.198 281.899 414.365 286.566 407.365 295.9ZM345.065 625.6L360.465 622.8C365.132 622.8 367.465 625.366 367.465 630.5C367.465 646.833 364.198 660.6 357.665 671.8C351.132 683 342.965 690.933 333.165 695.6C317.298 703.533 303.765 707.5 292.565 707.5C271.098 707.5 254.998 699.566 244.265 683.7C233.532 667.366 228.165 643.1 228.165 610.9C228.165 578.233 237.032 536 254.765 484.199H214.165C209.032 484.199 206.465 481.633 206.465 476.499C206.465 471.366 210.432 463.2 218.365 451.999C226.298 440.333 234.698 434.499 243.565 434.499H275.065C308.198 360.766 347.165 297.066 391.965 243.4C403.632 229.399 417.865 216.333 434.665 204.199C451.932 192.066 465.232 185.999 474.565 185.999C483.898 185.999 490.898 190.199 495.565 198.6C507.698 218.2 521.932 289.833 538.265 413.499C543.865 466.7 553.432 521.766 566.965 578.7C580.965 635.166 593.798 668.066 605.465 677.4C608.265 679.266 609.665 681.6 609.665 684.4C609.665 691.4 599.632 697.933 579.565 704C559.965 710.066 544.798 713.1 534.065 713.1C523.798 713.1 515.865 711.7 510.265 708.9C504.665 706.566 501.165 704 499.765 701.2C491.365 683 482.965 639.6 474.565 571L470.365 538.1C468.498 516.166 466.632 499.6 464.765 488.4L459.865 484.9L313.565 484.199C307.965 507.999 305.165 528.766 305.165 546.5C305.165 564.233 305.632 577.3 306.565 585.7C307.965 593.633 311.932 602.266 318.465 611.6C324.998 620.933 333.865 625.6 345.065 625.6Z" fill="url(#paint0_linear_5_15)"/>
<path d="M407.365 295.9L408.147 296.523L408.156 296.512L408.165 296.5L407.365 295.9ZM327.565 434.499L326.622 434.166L326.151 435.499H327.565V434.499ZM439.565 435.2L439.515 436.198L439.54 436.2H439.565V435.2ZM457.765 430.3L458.714 430.616L458.788 430.394L458.756 430.163L457.765 430.3ZM438.865 313.399L437.889 313.616L437.89 313.621L438.865 313.399ZM345.065 625.6V626.6H345.155L345.244 626.583L345.065 625.6ZM360.465 622.8V621.8H360.375L360.286 621.816L360.465 622.8ZM357.665 671.8L356.801 671.296L356.801 671.296L357.665 671.8ZM333.165 695.6L332.735 694.697L332.726 694.701L332.718 694.705L333.165 695.6ZM244.265 683.7L243.429 684.249L243.437 684.26L244.265 683.7ZM254.765 484.199L255.711 484.523L256.164 483.199H254.765V484.199ZM218.365 451.999L219.181 452.578L219.187 452.57L219.192 452.562L218.365 451.999ZM275.065 434.499V435.499H275.712L275.977 434.909L275.065 434.499ZM391.965 243.4L392.733 244.04L392.733 244.04L391.965 243.4ZM434.665 204.199L434.09 203.381L434.08 203.389L434.665 204.199ZM495.565 198.6L494.691 199.085L494.702 199.106L494.715 199.126L495.565 198.6ZM538.265 413.499L539.26 413.395L539.258 413.382L539.256 413.369L538.265 413.499ZM566.965 578.7L565.992 578.931L565.994 578.94L566.965 578.7ZM605.465 677.4L604.84 678.18L604.874 678.207L604.91 678.232L605.465 677.4ZM579.565 704L579.276 703.042L579.269 703.044L579.565 704ZM510.265 708.9L510.712 708.005L510.681 707.99L510.65 707.976L510.265 708.9ZM499.765 701.2L498.857 701.619L498.864 701.633L498.871 701.647L499.765 701.2ZM474.565 571L475.558 570.878L475.557 570.873L474.565 571ZM470.365 538.1L469.369 538.184L469.37 538.205L469.373 538.226L470.365 538.1ZM464.765 488.4L465.751 488.235L465.683 487.827L465.346 487.586L464.765 488.4ZM459.865 484.9L460.446 484.086L460.188 483.901L459.87 483.9L459.865 484.9ZM313.565 484.199L313.57 483.2L312.774 483.196L312.592 483.97L313.565 484.199ZM306.565 585.7L305.571 585.81L305.575 585.842L305.58 585.873L306.565 585.7ZM318.465 611.6L319.284 611.026L319.284 611.026L318.465 611.6ZM406.583 295.276C369.661 341.545 342.999 387.842 326.622 434.166L328.508 434.833C344.797 388.757 371.336 342.653 408.147 296.523L406.583 295.276ZM327.565 435.499H328.265V433.499H327.565V435.499ZM328.265 435.499C393.149 435.499 430.214 435.733 439.515 436.198L439.615 434.201C430.249 433.732 393.114 433.499 328.265 433.499V435.499ZM439.565 436.2C444.475 436.2 448.3 436.083 451.027 435.846C452.387 435.727 453.501 435.577 454.351 435.388C454.775 435.294 455.156 435.185 455.479 435.056C455.787 434.933 456.117 434.762 456.372 434.507L454.958 433.092C454.98 433.07 454.938 433.118 454.736 433.199C454.548 433.274 454.28 433.355 453.917 433.436C453.191 433.597 452.176 433.738 450.853 433.853C448.213 434.083 444.455 434.2 439.565 434.2V436.2ZM456.372 434.507C457.428 433.451 458.204 432.145 458.714 430.616L456.816 429.983C456.393 431.254 455.769 432.281 454.958 433.092L456.372 434.507ZM458.756 430.163C450.823 372.767 444.518 333.759 439.84 313.178L437.89 313.621C442.546 334.106 448.84 373.032 456.774 430.436L458.756 430.163ZM439.841 313.183C437.504 302.663 435.153 294.711 432.779 289.368C431.593 286.701 430.377 284.627 429.112 283.204C427.852 281.786 426.436 280.899 424.865 280.899V282.899C425.627 282.899 426.544 283.325 427.618 284.533C428.686 285.735 429.803 287.598 430.951 290.181C433.243 295.338 435.56 303.136 437.889 313.616L439.841 313.183ZM424.865 280.899C422.204 280.899 419.36 282.223 416.365 284.619C413.357 287.025 410.091 290.599 406.565 295.3L408.165 296.5C411.639 291.867 414.79 288.44 417.615 286.18C420.453 283.909 422.86 282.899 424.865 282.899V280.899ZM345.244 626.583L360.644 623.783L360.286 621.816L344.886 624.616L345.244 626.583ZM360.465 623.8C362.618 623.8 364.057 624.387 364.975 625.397C365.91 626.425 366.465 628.065 366.465 630.5H368.465C368.465 627.801 367.854 625.591 366.455 624.052C365.04 622.495 362.978 621.8 360.465 621.8V623.8ZM366.465 630.5C366.465 646.701 363.225 660.283 356.801 671.296L358.529 672.303C365.172 660.916 368.465 646.965 368.465 630.5H366.465ZM356.801 671.296C350.349 682.356 342.321 690.132 332.735 694.697L333.595 696.502C343.609 691.734 351.914 683.643 358.529 672.303L356.801 671.296ZM332.718 694.705C316.917 702.605 303.545 706.5 292.565 706.5V708.5C303.985 708.5 317.679 704.46 333.612 696.494L332.718 694.705ZM292.565 706.5C271.383 706.5 255.616 698.694 245.093 683.139L243.437 684.26C254.381 700.438 270.813 708.5 292.565 708.5V706.5ZM245.101 683.15C234.524 667.055 229.165 643.018 229.165 610.9H227.165C227.165 643.181 232.54 667.678 243.429 684.249L245.101 683.15ZM229.165 610.9C229.165 578.393 237.993 536.28 255.711 484.523L253.819 483.876C236.071 535.719 227.165 578.073 227.165 610.9H229.165ZM254.765 483.199H214.165V485.199H254.765V483.199ZM214.165 483.199C211.752 483.199 210.127 482.597 209.097 481.567C208.067 480.538 207.465 478.912 207.465 476.499H205.465C205.465 479.22 206.146 481.445 207.683 482.982C209.22 484.519 211.444 485.199 214.165 485.199V483.199ZM207.465 476.499C207.465 474.159 208.379 470.998 210.339 466.961C212.29 462.945 215.232 458.153 219.181 452.578L217.549 451.421C213.565 457.046 210.557 461.937 208.54 466.088C206.534 470.218 205.465 473.706 205.465 476.499H207.465ZM219.192 452.562C227.052 441.002 235.19 435.499 243.565 435.499V433.499C234.207 433.499 225.544 439.663 217.538 451.437L219.192 452.562ZM243.565 435.499H275.065V433.499H243.565V435.499ZM275.977 434.909C309.079 361.247 347.999 297.627 392.733 244.04L391.197 242.759C346.331 296.505 307.318 360.286 274.153 434.09L275.977 434.909ZM392.733 244.04C404.34 230.112 418.509 217.101 435.25 205.01L434.08 203.389C417.221 215.565 402.924 228.687 391.197 242.759L392.733 244.04ZM435.24 205.018C443.843 198.972 451.43 194.459 458.005 191.459C464.591 188.455 470.1 186.999 474.565 186.999V184.999C469.697 184.999 463.889 186.577 457.175 189.64C450.45 192.707 442.754 197.293 434.09 203.381L435.24 205.018ZM474.565 186.999C479.077 186.999 482.977 188.013 486.301 190.007C489.625 192.002 492.428 195.011 494.691 199.085L496.439 198.114C494.036 193.788 491.005 190.497 487.329 188.292C483.653 186.086 479.386 184.999 474.565 184.999V186.999ZM494.715 199.126C497.672 203.903 500.807 211.945 504.098 223.333C507.383 234.7 510.804 249.326 514.359 267.219C521.47 303.005 529.108 351.806 537.274 413.63L539.256 413.369C531.089 351.526 523.444 302.677 516.321 266.83C512.76 248.907 509.326 234.22 506.019 222.778C502.719 211.358 499.524 203.096 496.415 198.073L494.715 199.126ZM537.271 413.604C542.875 466.851 552.45 521.96 565.992 578.931L567.938 578.468C554.414 521.573 544.855 466.548 539.26 413.395L537.271 413.604ZM565.994 578.94C572.999 607.192 579.719 629.581 586.158 646.088C589.378 654.342 592.534 661.144 595.631 666.483C598.722 671.81 601.785 675.736 604.84 678.18L606.09 676.619C603.312 674.396 600.396 670.71 597.361 665.479C594.333 660.259 591.219 653.557 588.022 645.361C581.627 628.968 574.931 606.673 567.936 578.459L565.994 578.94ZM604.91 678.232C607.497 679.956 608.665 682.005 608.665 684.4H610.665C610.665 681.194 609.033 678.577 606.02 676.567L604.91 678.232ZM608.665 684.4C608.665 687.376 606.53 690.498 601.594 693.712C596.695 696.902 589.275 700.019 579.276 703.042L579.854 704.957C589.921 701.913 597.552 698.731 602.686 695.388C607.784 692.068 610.665 688.423 610.665 684.4H608.665ZM579.269 703.044C559.695 709.103 544.644 712.1 534.065 712.1V714.1C544.952 714.1 560.235 711.029 579.861 704.955L579.269 703.044ZM534.065 712.1C523.866 712.1 516.112 710.705 510.712 708.005L509.818 709.794C515.618 712.694 523.731 714.1 534.065 714.1V712.1ZM510.65 707.976C505.092 705.661 501.889 703.211 500.659 700.752L498.871 701.647C500.441 704.788 504.238 707.472 509.88 709.823L510.65 707.976ZM500.673 700.78C496.528 691.799 492.345 676.502 488.147 654.809C483.953 633.141 479.756 605.166 475.558 570.878L473.572 571.121C477.774 605.433 481.977 633.458 486.183 655.19C490.385 676.897 494.602 692.4 498.857 701.619L500.673 700.78ZM475.557 570.873L471.357 537.973L469.373 538.226L473.573 571.126L475.557 570.873ZM471.361 538.015C469.494 516.074 467.625 499.476 465.751 488.235L463.779 488.564C465.639 499.723 467.503 516.258 469.369 538.184L471.361 538.015ZM465.346 487.586L460.446 484.086L459.284 485.713L464.184 489.213L465.346 487.586ZM459.87 483.9L313.57 483.2L313.56 485.199L459.86 485.899L459.87 483.9ZM312.592 483.97C306.98 507.819 304.165 528.666 304.165 546.5H306.165C306.165 528.866 308.95 508.18 314.538 484.429L312.592 483.97ZM304.165 546.5C304.165 564.239 304.631 577.352 305.571 585.81L307.559 585.589C306.632 577.247 306.165 564.227 306.165 546.5H304.165ZM305.58 585.873C307.014 593.997 311.061 602.766 317.646 612.173L319.284 611.026C312.802 601.766 308.916 593.269 307.55 585.526L305.58 585.873ZM317.646 612.173C324.362 621.768 333.532 626.6 345.065 626.6V624.6C334.198 624.6 325.634 620.098 319.284 611.026L317.646 612.173Z" fill="url(#paint1_linear_5_15)" mask="url(#path-1-outside-1_5_15)"/>
</g>
<g filter="url(#filter1_d_5_15)">
<mask id="path-3-outside-2_5_15" maskUnits="userSpaceOnUse" x="106" y="122" width="233" height="371" fill="black">
<rect fill="white" x="106" y="122" width="233" height="371"/>
<path d="M324.535 366.5C330.868 366.5 334.035 374.5 334.035 390.5C334.035 406.5 331.035 420.833 325.035 433.5C319.035 446.167 311.702 456 303.035 463C294.702 470 285.202 475.667 274.535 480C238.868 495.667 205.535 495.333 174.535 479C158.868 470.667 146.868 460.833 138.535 449.5C130.202 437.833 123.535 424 118.535 408C110.868 384 107.035 358.833 107.035 332.5C107.035 306.167 109.535 281.5 114.535 258.5C119.535 235.5 127.202 213.667 137.535 193C147.868 172 162.535 155.167 181.535 142.5C200.535 129.833 222.535 123.5 247.535 123.5C258.202 123.5 269.202 125.333 280.535 129C292.202 132.333 301.702 136.667 309.035 142C316.368 147 322.868 154.833 328.535 165.5C334.202 176.167 337.035 188.667 337.035 203C337.035 218.333 333.368 232.167 326.035 244.5C322.702 250.167 317.368 255.333 310.035 260C302.702 264.333 294.035 266.5 284.035 266.5C268.702 266.5 257.868 259.667 251.535 246C248.868 240.667 247.535 234.833 247.535 228.5C247.535 222.167 249.702 218.5 254.035 217.5C258.702 216.167 263.035 212.5 267.035 206.5C271.035 200.5 273.035 193.5 273.035 185.5C273.035 179.167 271.368 173.667 268.035 169C261.702 160.667 252.535 156.5 240.535 156.5C228.535 156.5 217.535 162 207.535 173C197.868 184 190.535 197.833 185.535 214.5C175.535 247.833 170.535 278.5 170.535 306.5C170.535 334.5 174.368 357 182.035 374C191.368 395 203.202 409 217.535 416C226.535 420.333 236.868 422.5 248.535 422.5C268.202 422.5 285.868 413.667 301.535 396C308.202 389 313.702 380.667 318.035 371C319.702 368 321.868 366.5 324.535 366.5Z"/>
</mask>
<path d="M324.535 366.5C330.868 366.5 334.035 374.5 334.035 390.5C334.035 406.5 331.035 420.833 325.035 433.5C319.035 446.167 311.702 456 303.035 463C294.702 470 285.202 475.667 274.535 480C238.868 495.667 205.535 495.333 174.535 479C158.868 470.667 146.868 460.833 138.535 449.5C130.202 437.833 123.535 424 118.535 408C110.868 384 107.035 358.833 107.035 332.5C107.035 306.167 109.535 281.5 114.535 258.5C119.535 235.5 127.202 213.667 137.535 193C147.868 172 162.535 155.167 181.535 142.5C200.535 129.833 222.535 123.5 247.535 123.5C258.202 123.5 269.202 125.333 280.535 129C292.202 132.333 301.702 136.667 309.035 142C316.368 147 322.868 154.833 328.535 165.5C334.202 176.167 337.035 188.667 337.035 203C337.035 218.333 333.368 232.167 326.035 244.5C322.702 250.167 317.368 255.333 310.035 260C302.702 264.333 294.035 266.5 284.035 266.5C268.702 266.5 257.868 259.667 251.535 246C248.868 240.667 247.535 234.833 247.535 228.5C247.535 222.167 249.702 218.5 254.035 217.5C258.702 216.167 263.035 212.5 267.035 206.5C271.035 200.5 273.035 193.5 273.035 185.5C273.035 179.167 271.368 173.667 268.035 169C261.702 160.667 252.535 156.5 240.535 156.5C228.535 156.5 217.535 162 207.535 173C197.868 184 190.535 197.833 185.535 214.5C175.535 247.833 170.535 278.5 170.535 306.5C170.535 334.5 174.368 357 182.035 374C191.368 395 203.202 409 217.535 416C226.535 420.333 236.868 422.5 248.535 422.5C268.202 422.5 285.868 413.667 301.535 396C308.202 389 313.702 380.667 318.035 371C319.702 368 321.868 366.5 324.535 366.5Z" fill="url(#paint2_linear_5_15)"/>
<path d="M325.035 433.5L324.131 433.072L324.131 433.072L325.035 433.5ZM303.035 463L302.407 462.222L302.399 462.228L302.392 462.234L303.035 463ZM274.535 480L274.159 479.074L274.146 479.079L274.133 479.084L274.535 480ZM174.535 479L174.066 479.883L174.069 479.885L174.535 479ZM138.535 449.5L137.721 450.081L137.729 450.092L138.535 449.5ZM118.535 408L119.49 407.702L119.488 407.696L118.535 408ZM114.535 258.5L113.558 258.288L113.558 258.288L114.535 258.5ZM137.535 193L138.43 193.447L138.432 193.441L137.535 193ZM181.535 142.5L182.09 143.332L182.09 143.332L181.535 142.5ZM280.535 129L280.227 129.951L280.244 129.957L280.26 129.961L280.535 129ZM309.035 142L308.447 142.809L308.459 142.818L308.472 142.826L309.035 142ZM328.535 165.5L329.418 165.031L329.418 165.031L328.535 165.5ZM326.035 244.5L325.176 243.989L325.173 243.993L326.035 244.5ZM310.035 260L310.544 260.861L310.558 260.852L310.572 260.844L310.035 260ZM251.535 246L252.442 245.58L252.436 245.566L252.43 245.553L251.535 246ZM254.035 217.5L254.26 218.474L254.285 218.469L254.31 218.462L254.035 217.5ZM267.035 206.5L266.203 205.945L266.203 205.945L267.035 206.5ZM268.035 169L268.849 168.419L268.84 168.407L268.831 168.395L268.035 169ZM207.535 173L206.795 172.327L206.79 172.334L206.784 172.34L207.535 173ZM185.535 214.5L184.577 214.213L184.577 214.213L185.535 214.5ZM182.035 374L182.949 373.594L182.947 373.589L182.035 374ZM217.535 416L217.096 416.899L217.101 416.901L217.535 416ZM301.535 396L300.811 395.31L300.799 395.323L300.787 395.336L301.535 396ZM318.035 371L317.161 370.514L317.14 370.552L317.123 370.591L318.035 371ZM324.535 367.5C325.888 367.5 327.044 367.92 328.047 368.765C329.069 369.625 329.977 370.966 330.73 372.868C332.243 376.689 333.035 382.537 333.035 390.5H335.035C335.035 382.463 334.244 376.31 332.59 372.132C331.76 370.034 330.689 368.375 329.336 367.235C327.964 366.08 326.349 365.5 324.535 365.5V367.5ZM333.035 390.5C333.035 406.373 330.06 420.557 324.131 433.072L325.939 433.928C332.011 421.11 335.035 406.627 335.035 390.5H333.035ZM324.131 433.072C318.18 445.637 310.93 455.338 302.407 462.222L303.663 463.778C312.473 456.662 319.891 446.696 325.939 433.928L324.131 433.072ZM302.392 462.234C294.143 469.163 284.734 474.777 274.159 479.074L274.912 480.926C285.669 476.556 295.26 470.837 303.678 463.766L302.392 462.234ZM274.133 479.084C238.71 494.644 205.699 494.289 175.001 478.115L174.069 479.885C205.371 496.377 239.027 496.689 274.937 480.916L274.133 479.084ZM175.005 478.117C159.437 469.836 147.565 460.093 139.341 448.908L137.729 450.092C146.172 461.574 158.3 471.497 174.066 479.883L175.005 478.117ZM139.349 448.919C131.087 437.352 124.463 423.617 119.49 407.702L117.581 408.298C122.607 424.383 129.317 438.315 137.721 450.081L139.349 448.919ZM119.488 407.696C111.854 383.798 108.035 358.735 108.035 332.5H106.035C106.035 358.932 109.883 384.202 117.583 408.304L119.488 407.696ZM108.035 332.5C108.035 306.23 110.529 281.635 115.512 258.712L113.558 258.288C108.541 281.365 106.035 306.104 106.035 332.5H108.035ZM115.512 258.712C120.495 235.792 128.134 214.038 138.43 193.447L136.641 192.553C126.269 213.295 118.575 235.208 113.558 258.288L115.512 258.712ZM138.432 193.441C148.69 172.595 163.24 155.898 182.09 143.332L180.98 141.668C161.83 154.435 147.047 171.405 136.638 192.558L138.432 193.441ZM182.09 143.332C200.91 130.785 222.713 124.5 247.535 124.5V122.5C222.357 122.5 200.16 128.881 180.98 141.668L182.09 143.332ZM247.535 124.5C258.086 124.5 268.982 126.313 280.227 129.951L280.843 128.049C269.422 124.353 258.318 122.5 247.535 122.5V124.5ZM280.26 129.961C291.85 133.273 301.234 137.563 308.447 142.809L309.623 141.191C302.169 135.77 292.553 131.394 280.81 128.038L280.26 129.961ZM308.472 142.826C315.632 147.708 322.035 155.396 327.652 165.969L329.418 165.031C323.702 154.27 317.105 146.292 309.598 141.174L308.472 142.826ZM327.652 165.969C333.229 176.467 336.035 188.8 336.035 203H338.035C338.035 188.534 335.175 175.867 329.418 165.031L327.652 165.969ZM336.035 203C336.035 218.166 332.411 231.821 325.176 243.989L326.895 245.011C334.326 232.512 338.035 218.5 338.035 203H336.035ZM325.173 243.993C321.942 249.487 316.739 254.548 309.498 259.156L310.572 260.844C317.998 256.118 323.462 250.847 326.897 245.007L325.173 243.993ZM309.526 259.139C302.372 263.367 293.888 265.5 284.035 265.5V267.5C294.183 267.5 303.031 265.3 310.544 260.861L309.526 259.139ZM284.035 265.5C276.52 265.5 270.172 263.827 264.944 260.529C259.717 257.232 255.543 252.269 252.442 245.58L250.628 246.42C253.861 253.397 258.27 258.684 263.877 262.221C269.482 265.757 276.217 267.5 284.035 267.5V265.5ZM252.43 245.553C249.837 240.367 248.535 234.688 248.535 228.5H246.535C246.535 234.979 247.9 240.966 250.641 246.447L252.43 245.553ZM248.535 228.5C248.535 225.431 249.063 223.131 250.021 221.509C250.958 219.923 252.347 218.916 254.26 218.474L253.81 216.526C251.39 217.084 249.529 218.411 248.299 220.491C247.091 222.536 246.535 225.235 246.535 228.5H248.535ZM254.31 218.462C259.293 217.038 263.798 213.159 267.867 207.055L266.203 205.945C262.273 211.841 258.111 215.296 253.76 216.538L254.31 218.462ZM267.867 207.055C271.989 200.873 274.035 193.675 274.035 185.5H272.035C272.035 193.325 270.082 200.127 266.203 205.945L267.867 207.055ZM274.035 185.5C274.035 178.981 272.316 173.273 268.849 168.419L267.221 169.581C270.421 174.061 272.035 179.352 272.035 185.5H274.035ZM268.831 168.395C262.279 159.774 252.796 155.5 240.535 155.5V157.5C252.275 157.5 261.124 161.559 267.239 169.605L268.831 168.395ZM240.535 155.5C228.188 155.5 216.936 161.172 206.795 172.327L208.275 173.673C218.134 162.828 228.882 157.5 240.535 157.5V155.5ZM206.784 172.34C197.006 183.466 189.611 197.434 184.577 214.213L186.493 214.787C191.459 198.233 198.731 184.534 208.286 173.66L206.784 172.34ZM184.577 214.213C174.556 247.618 169.535 278.382 169.535 306.5H171.535C171.535 278.618 176.514 248.049 186.493 214.787L184.577 214.213ZM169.535 306.5C169.535 334.577 173.377 357.234 181.124 374.411L182.947 373.589C175.36 356.766 171.535 334.423 171.535 306.5H169.535ZM181.121 374.406C190.509 395.528 202.476 409.758 217.096 416.899L217.974 415.101C203.928 408.242 192.228 394.472 182.949 373.594L181.121 374.406ZM217.101 416.901C226.258 421.31 236.743 423.5 248.535 423.5V421.5C236.994 421.5 226.813 419.357 217.969 415.099L217.101 416.901ZM248.535 423.5C268.545 423.5 286.468 414.497 302.283 396.663L300.787 395.336C285.269 412.836 267.859 421.5 248.535 421.5V423.5ZM302.259 396.69C309.011 389.6 314.572 381.169 318.948 371.409L317.123 370.591C312.831 380.164 307.392 388.4 300.811 395.31L302.259 396.69ZM318.909 371.486C320.458 368.697 322.338 367.5 324.535 367.5V365.5C321.399 365.5 318.945 367.303 317.161 370.514L318.909 371.486Z" fill="url(#paint3_linear_5_15)" mask="url(#path-3-outside-2_5_15)"/>
</g>
<defs>
<filter id="filter0_d_5_15" x="202.465" y="186" width="411.2" height="535.1" filterUnits="userSpaceOnUse" color-interpolation-filters="sRGB">
<feFlood flood-opacity="0" result="BackgroundImageFix"/>
<feColorMatrix in="SourceAlpha" type="matrix" values="0 0 0 0 0 0 0 0 0 0 0 0 0 0 0 0 0 0 127 0" result="hardAlpha"/>
<feOffset dy="4"/>
<feGaussianBlur stdDeviation="2"/>
<feComposite in2="hardAlpha" operator="out"/>
<feColorMatrix type="matrix" values="0 0 0 0 0 0 0 0 0 0 0 0 0 0 0 0 0 0 0.25 0"/>
<feBlend mode="normal" in2="BackgroundImageFix" result="effect1_dropShadow_5_15"/>
<feBlend mode="normal" in="SourceGraphic" in2="effect1_dropShadow_5_15" result="shape"/>
</filter>
<filter id="filter1_d_5_15" x="103.035" y="123.5" width="238" height="388" filterUnits="userSpaceOnUse" color-interpolation-filters="sRGB">
<feFlood flood-opacity="0" result="BackgroundImageFix"/>
<feColorMatrix in="SourceAlpha" type="matrix" values="0 0 0 0 0 0 0 0 0 0 0 0 0 0 0 0 0 0 127 0" result="hardAlpha"/>
<feOffset dy="4"/>
<feGaussianBlur stdDeviation="2"/>
<feComposite in2="hardAlpha" operator="out"/>
<feColorMatrix type="matrix" values="0 0 0 0 0 0 0 0 0 0 0 0 0 0 0 0 0 0 0.25 0"/>
<feBlend mode="normal" in2="BackgroundImageFix" result="effect1_dropShadow_5_15"/>
<feBlend mode="normal" in="SourceGraphic" in2="effect1_dropShadow_5_15" result="shape"/>
</filter>
<linearGradient id="paint0_linear_5_15" x1="185" y1="493" x2="625" y2="493" gradientUnits="userSpaceOnUse">
<stop offset="0.394405" stop-color="#34074C"/>
<stop offset="0.607249" stop-color="#7A11B2"/>
</linearGradient>
<linearGradient id="paint1_linear_5_15" x1="405" y1="828" x2="405" y2="158" gradientUnits="userSpaceOnUse">
<stop offset="0.4" stop-color="#34074C"/>
<stop offset="0.6" stop-color="#7A11B2"/>
</linearGradient>
<linearGradient id="paint2_linear_5_15" x1="440" y1="335" x2="0" y2="335" gradientUnits="userSpaceOnUse">
<stop offset="0.394405" stop-color="#34074C"/>
<stop offset="0.607249" stop-color="#7A11B2"/>
</linearGradient>
<linearGradient id="paint3_linear_5_15" x1="440" y1="335" x2="0" y2="335" gradientUnits="userSpaceOnUse">
<stop offset="0.4" stop-color="#34074C"/>
<stop offset="0.6" stop-color="#7A11B2"/>
</linearGradient>
</defs>
</svg>
