<svg width="1390" height="480" viewBox="0 0 1390 480" fill="none" xmlns="http://www.w3.org/2000/svg">
<g filter="url(#filter0_d_1_11)">
<mask id="path-1-outside-1_1_11" maskUnits="userSpaceOnUse" x="47" y="6" width="945" height="213" fill="black">
<rect fill="white" x="47" y="6" width="945" height="213"/>
<path d="M174.897 191.9L148.797 218H74.6969L48.8969 191.9V36.8L74.6969 10.7H148.797L174.897 36.8V58.4L145.197 88.4V36.8H78.5969V191.9H145.197V170L174.897 140.3V191.9ZM319.096 114.2L289.396 143.9V88.4H245.296V218H215.596V62.3H245.296V84.8L266.896 62.3H293.296L319.096 88.4V114.2ZM384.163 36.8H354.463V7.1H384.163V36.8ZM384.163 218H354.463V85.1L384.163 55.1V218ZM523.809 88.4H449.709V114.2H490.509L516.609 140.3V191.9L490.509 218H420.009V191.9H486.909V140.3H446.109L420.009 114.2V88.4L446.109 62.3H497.409L523.809 88.4ZM629.289 62.3L603.189 88.4H584.589V191.9H621.489V218H580.989L554.889 191.9V88.4H517.989L544.089 62.3H554.889V40.4L584.589 10.7V62.3H629.289ZM681.234 36.8H651.534V7.1H681.234V36.8ZM681.234 218H651.534V85.1L681.234 55.1V218ZM832.879 218H803.179V195.8L780.979 218H751.279L725.479 191.9V140.3L751.279 114.2H800.179L775.579 140H754.879V191.9H803.179V88.4H721.579L743.779 62.3H807.079L832.879 88.4V218ZM990.079 218H960.679V88.4H912.679V218H882.979V62.3H912.679V84.8L934.579 62.3H964.279L990.079 88.4V218Z"/>
</mask>
<path d="M174.897 191.9L148.797 218H74.6969L48.8969 191.9V36.8L74.6969 10.7H148.797L174.897 36.8V58.4L145.197 88.4V36.8H78.5969V191.9H145.197V170L174.897 140.3V191.9ZM319.096 114.2L289.396 143.9V88.4H245.296V218H215.596V62.3H245.296V84.8L266.896 62.3H293.296L319.096 88.4V114.2ZM384.163 36.8H354.463V7.1H384.163V36.8ZM384.163 218H354.463V85.1L384.163 55.1V218ZM523.809 88.4H449.709V114.2H490.509L516.609 140.3V191.9L490.509 218H420.009V191.9H486.909V140.3H446.109L420.009 114.2V88.4L446.109 62.3H497.409L523.809 88.4ZM629.289 62.3L603.189 88.4H584.589V191.9H621.489V218H580.989L554.889 191.9V88.4H517.989L544.089 62.3H554.889V40.4L584.589 10.7V62.3H629.289ZM681.234 36.8H651.534V7.1H681.234V36.8ZM681.234 218H651.534V85.1L681.234 55.1V218ZM832.879 218H803.179V195.8L780.979 218H751.279L725.479 191.9V140.3L751.279 114.2H800.179L775.579 140H754.879V191.9H803.179V88.4H721.579L743.779 62.3H807.079L832.879 88.4V218ZM990.079 218H960.679V88.4H912.679V218H882.979V62.3H912.679V84.8L934.579 62.3H964.279L990.079 88.4V218Z" fill="#7A11B2"/>
<path d="M174.897 191.9L175.604 192.607L175.897 192.314V191.9H174.897ZM148.797 218V219H149.211L149.504 218.707L148.797 218ZM74.6969 218L73.9857 218.703L74.2793 219H74.6969V218ZM48.8969 191.9H47.8969V192.311L48.1857 192.603L48.8969 191.9ZM48.8969 36.8L48.1857 36.097L47.8969 36.3892V36.8H48.8969ZM74.6969 10.7V9.69999H74.2793L73.9857 9.99698L74.6969 10.7ZM148.797 10.7L149.504 9.99288L149.211 9.69999H148.797V10.7ZM174.897 36.8H175.897V36.3858L175.604 36.0929L174.897 36.8ZM174.897 58.4L175.608 59.1035L175.897 58.8113V58.4H174.897ZM145.197 88.4H144.197V90.8315L145.908 89.1035L145.197 88.4ZM145.197 36.8H146.197V35.8H145.197V36.8ZM78.5969 36.8V35.8H77.5969V36.8H78.5969ZM78.5969 191.9H77.5969V192.9H78.5969V191.9ZM145.197 191.9V192.9H146.197V191.9H145.197ZM145.197 170L144.49 169.293L144.197 169.586V170H145.197ZM174.897 140.3H175.897V137.886L174.19 139.593L174.897 140.3ZM174.19 191.193L148.09 217.293L149.504 218.707L175.604 192.607L174.19 191.193ZM148.797 217H74.6969V219H148.797V217ZM75.4081 217.297L49.6081 191.197L48.1857 192.603L73.9857 218.703L75.4081 217.297ZM49.8969 191.9V36.8H47.8969V191.9H49.8969ZM49.6081 37.503L75.4081 11.403L73.9857 9.99698L48.1857 36.097L49.6081 37.503ZM74.6969 11.7H148.797V9.69999H74.6969V11.7ZM148.09 11.4071L174.19 37.5071L175.604 36.0929L149.504 9.99288L148.09 11.4071ZM173.897 36.8V58.4H175.897V36.8H173.897ZM174.186 57.6965L144.486 87.6965L145.908 89.1035L175.608 59.1035L174.186 57.6965ZM146.197 88.4V36.8H144.197V88.4H146.197ZM145.197 35.8H78.5969V37.8H145.197V35.8ZM77.5969 36.8V191.9H79.5969V36.8H77.5969ZM78.5969 192.9H145.197V190.9H78.5969V192.9ZM146.197 191.9V170H144.197V191.9H146.197ZM145.904 170.707L175.604 141.007L174.19 139.593L144.49 169.293L145.904 170.707ZM173.897 140.3V191.9H175.897V140.3H173.897ZM319.096 114.2L319.803 114.907L320.096 114.614V114.2H319.096ZM289.396 143.9H288.396V146.314L290.103 144.607L289.396 143.9ZM289.396 88.4H290.396V87.4H289.396V88.4ZM245.296 88.4V87.4H244.296V88.4H245.296ZM245.296 218V219H246.296V218H245.296ZM215.596 218H214.596V219H215.596V218ZM215.596 62.3V61.3H214.596V62.3H215.596ZM245.296 62.3H246.296V61.3H245.296V62.3ZM245.296 84.8H244.296V87.2856L246.017 85.4925L245.296 84.8ZM266.896 62.3V61.3H266.47L266.175 61.6075L266.896 62.3ZM293.296 62.3L294.007 61.597L293.714 61.3H293.296V62.3ZM319.096 88.4H320.096V87.9892L319.807 87.697L319.096 88.4ZM318.389 113.493L288.689 143.193L290.103 144.607L319.803 114.907L318.389 113.493ZM290.396 143.9V88.4H288.396V143.9H290.396ZM289.396 87.4H245.296V89.4H289.396V87.4ZM244.296 88.4V218H246.296V88.4H244.296ZM245.296 217H215.596V219H245.296V217ZM216.596 218V62.3H214.596V218H216.596ZM215.596 63.3H245.296V61.3H215.596V63.3ZM244.296 62.3V84.8H246.296V62.3H244.296ZM246.017 85.4925L267.617 62.9925L266.175 61.6075L244.575 84.1075L246.017 85.4925ZM266.896 63.3H293.296V61.3H266.896V63.3ZM292.585 63.003L318.385 89.103L319.807 87.697L294.007 61.597L292.585 63.003ZM318.096 88.4V114.2H320.096V88.4H318.096ZM384.163 36.8V37.8H385.163V36.8H384.163ZM354.463 36.8H353.463V37.8H354.463V36.8ZM354.463 7.1V6.1H353.463V7.1H354.463ZM384.163 7.1H385.163V6.1H384.163V7.1ZM384.163 218V219H385.163V218H384.163ZM354.463 218H353.463V219H354.463V218ZM354.463 85.1L353.753 84.3964L353.463 84.6887V85.1H354.463ZM384.163 55.1H385.163V52.6685L383.453 54.3964L384.163 55.1ZM384.163 35.8H354.463V37.8H384.163V35.8ZM355.463 36.8V7.1H353.463V36.8H355.463ZM354.463 8.1H384.163V6.1H354.463V8.1ZM383.163 7.1V36.8H385.163V7.1H383.163ZM384.163 217H354.463V219H384.163V217ZM355.463 218V85.1H353.463V218H355.463ZM355.174 85.8035L384.874 55.8035L383.453 54.3964L353.753 84.3964L355.174 85.8035ZM383.163 55.1V218H385.163V55.1H383.163ZM523.809 88.4V89.4H526.242L524.512 87.6889L523.809 88.4ZM449.709 88.4V87.4H448.709V88.4H449.709ZM449.709 114.2H448.709V115.2H449.709V114.2ZM490.509 114.2L491.216 113.493L490.923 113.2H490.509V114.2ZM516.609 140.3H517.609V139.886L517.316 139.593L516.609 140.3ZM516.609 191.9L517.316 192.607L517.609 192.314V191.9H516.609ZM490.509 218V219H490.923L491.216 218.707L490.509 218ZM420.009 218H419.009V219H420.009V218ZM420.009 191.9V190.9H419.009V191.9H420.009ZM486.909 191.9V192.9H487.909V191.9H486.909ZM486.909 140.3H487.909V139.3H486.909V140.3ZM446.109 140.3L445.401 141.007L445.694 141.3H446.109V140.3ZM420.009 114.2H419.009V114.614L419.301 114.907L420.009 114.2ZM420.009 88.4L419.301 87.6929L419.009 87.9858V88.4H420.009ZM446.109 62.3V61.3H445.694L445.401 61.5929L446.109 62.3ZM497.409 62.3L498.112 61.5888L497.819 61.3H497.409V62.3ZM523.809 87.4H449.709V89.4H523.809V87.4ZM448.709 88.4V114.2H450.709V88.4H448.709ZM449.709 115.2H490.509V113.2H449.709V115.2ZM489.801 114.907L515.901 141.007L517.316 139.593L491.216 113.493L489.801 114.907ZM515.609 140.3V191.9H517.609V140.3H515.609ZM515.901 191.193L489.801 217.293L491.216 218.707L517.316 192.607L515.901 191.193ZM490.509 217H420.009V219H490.509V217ZM421.009 218V191.9H419.009V218H421.009ZM420.009 192.9H486.909V190.9H420.009V192.9ZM487.909 191.9V140.3H485.909V191.9H487.909ZM486.909 139.3H446.109V141.3H486.909V139.3ZM446.816 139.593L420.716 113.493L419.301 114.907L445.401 141.007L446.816 139.593ZM421.009 114.2V88.4H419.009V114.2H421.009ZM420.716 89.1071L446.816 63.0071L445.401 61.5929L419.301 87.6929L420.716 89.1071ZM446.109 63.3H497.409V61.3H446.109V63.3ZM496.706 63.0111L523.106 89.1111L524.512 87.6889L498.112 61.5888L496.706 63.0111ZM629.289 62.3L629.996 63.0071L631.703 61.3H629.289V62.3ZM603.189 88.4V89.4H603.603L603.896 89.1071L603.189 88.4ZM584.589 88.4V87.4H583.589V88.4H584.589ZM584.589 191.9H583.589V192.9H584.589V191.9ZM621.489 191.9H622.489V190.9H621.489V191.9ZM621.489 218V219H622.489V218H621.489ZM580.989 218L580.282 218.707L580.575 219H580.989V218ZM554.889 191.9H553.889V192.314L554.182 192.607L554.889 191.9ZM554.889 88.4H555.889V87.4H554.889V88.4ZM517.989 88.4L517.282 87.6929L515.575 89.4H517.989V88.4ZM544.089 62.3V61.3H543.675L543.382 61.5929L544.089 62.3ZM554.889 62.3V63.3H555.889V62.3H554.889ZM554.889 40.4L554.182 39.6929L553.889 39.9858V40.4H554.889ZM584.589 10.7H585.589V8.28577L583.882 9.99288L584.589 10.7ZM584.589 62.3H583.589V63.3H584.589V62.3ZM628.582 61.5929L602.482 87.6929L603.896 89.1071L629.996 63.0071L628.582 61.5929ZM603.189 87.4H584.589V89.4H603.189V87.4ZM583.589 88.4V191.9H585.589V88.4H583.589ZM584.589 192.9H621.489V190.9H584.589V192.9ZM620.489 191.9V218H622.489V191.9H620.489ZM621.489 217H580.989V219H621.489V217ZM581.696 217.293L555.596 191.193L554.182 192.607L580.282 218.707L581.696 217.293ZM555.889 191.9V88.4H553.889V191.9H555.889ZM554.889 87.4H517.989V89.4H554.889V87.4ZM518.696 89.1071L544.796 63.0071L543.382 61.5929L517.282 87.6929L518.696 89.1071ZM544.089 63.3H554.889V61.3H544.089V63.3ZM555.889 62.3V40.4H553.889V62.3H555.889ZM555.596 41.1071L585.296 11.4071L583.882 9.99288L554.182 39.6929L555.596 41.1071ZM583.589 10.7V62.3H585.589V10.7H583.589ZM584.589 63.3H629.289V61.3H584.589V63.3ZM681.234 36.8V37.8H682.234V36.8H681.234ZM651.534 36.8H650.534V37.8H651.534V36.8ZM651.534 7.1V6.1H650.534V7.1H651.534ZM681.234 7.1H682.234V6.1H681.234V7.1ZM681.234 218V219H682.234V218H681.234ZM651.534 218H650.534V219H651.534V218ZM651.534 85.1L650.823 84.3964L650.534 84.6887V85.1H651.534ZM681.234 55.1H682.234V52.6685L680.523 54.3964L681.234 55.1ZM681.234 35.8H651.534V37.8H681.234V35.8ZM652.534 36.8V7.1H650.534V36.8H652.534ZM651.534 8.1H681.234V6.1H651.534V8.1ZM680.234 7.1V36.8H682.234V7.1H680.234ZM681.234 217H651.534V219H681.234V217ZM652.534 218V85.1H650.534V218H652.534ZM652.244 85.8035L681.944 55.8035L680.523 54.3964L650.823 84.3964L652.244 85.8035ZM680.234 55.1V218H682.234V55.1H680.234ZM832.879 218V219H833.879V218H832.879ZM803.179 218H802.179V219H803.179V218ZM803.179 195.8H804.179V193.386L802.472 195.093L803.179 195.8ZM780.979 218V219H781.393L781.686 218.707L780.979 218ZM751.279 218L750.568 218.703L750.861 219H751.279V218ZM725.479 191.9H724.479V192.311L724.768 192.603L725.479 191.9ZM725.479 140.3L724.768 139.597L724.479 139.889V140.3H725.479ZM751.279 114.2V113.2H750.861L750.568 113.497L751.279 114.2ZM800.179 114.2L800.903 114.89L802.514 113.2H800.179V114.2ZM775.579 140V141H776.007L776.303 140.69L775.579 140ZM754.879 140V139H753.879V140H754.879ZM754.879 191.9H753.879V192.9H754.879V191.9ZM803.179 191.9V192.9H804.179V191.9H803.179ZM803.179 88.4H804.179V87.4H803.179V88.4ZM721.579 88.4L720.817 87.7521L719.416 89.4H721.579V88.4ZM743.779 62.3V61.3H743.317L743.017 61.6521L743.779 62.3ZM807.079 62.3L807.79 61.597L807.497 61.3H807.079V62.3ZM832.879 88.4H833.879V87.9892L833.59 87.697L832.879 88.4ZM832.879 217H803.179V219H832.879V217ZM804.179 218V195.8H802.179V218H804.179ZM802.472 195.093L780.272 217.293L781.686 218.707L803.886 196.507L802.472 195.093ZM780.979 217H751.279V219H780.979V217ZM751.99 217.297L726.19 191.197L724.768 192.603L750.568 218.703L751.99 217.297ZM726.479 191.9V140.3H724.479V191.9H726.479ZM726.19 141.003L751.99 114.903L750.568 113.497L724.768 139.597L726.19 141.003ZM751.279 115.2H800.179V113.2H751.279V115.2ZM799.455 113.51L774.855 139.31L776.303 140.69L800.903 114.89L799.455 113.51ZM775.579 139H754.879V141H775.579V139ZM753.879 140V191.9H755.879V140H753.879ZM754.879 192.9H803.179V190.9H754.879V192.9ZM804.179 191.9V88.4H802.179V191.9H804.179ZM803.179 87.4H721.579V89.4H803.179V87.4ZM722.341 89.0479L744.541 62.9479L743.017 61.6521L720.817 87.7521L722.341 89.0479ZM743.779 63.3H807.079V61.3H743.779V63.3ZM806.368 63.003L832.168 89.103L833.59 87.697L807.79 61.597L806.368 63.003ZM831.879 88.4V218H833.879V88.4H831.879ZM990.079 218V219H991.079V218H990.079ZM960.679 218H959.679V219H960.679V218ZM960.679 88.4H961.679V87.4H960.679V88.4ZM912.679 88.4V87.4H911.679V88.4H912.679ZM912.679 218V219H913.679V218H912.679ZM882.979 218H881.979V219H882.979V218ZM882.979 62.3V61.3H881.979V62.3H882.979ZM912.679 62.3H913.679V61.3H912.679V62.3ZM912.679 84.8H911.679V87.2611L913.396 85.4975L912.679 84.8ZM934.579 62.3V61.3H934.157L933.862 61.6025L934.579 62.3ZM964.279 62.3L964.99 61.597L964.697 61.3H964.279V62.3ZM990.079 88.4H991.079V87.9892L990.79 87.697L990.079 88.4ZM990.079 217H960.679V219H990.079V217ZM961.679 218V88.4H959.679V218H961.679ZM960.679 87.4H912.679V89.4H960.679V87.4ZM911.679 88.4V218H913.679V88.4H911.679ZM912.679 217H882.979V219H912.679V217ZM883.979 218V62.3H881.979V218H883.979ZM882.979 63.3H912.679V61.3H882.979V63.3ZM911.679 62.3V84.8H913.679V62.3H911.679ZM913.396 85.4975L935.296 62.9975L933.862 61.6025L911.962 84.1025L913.396 85.4975ZM934.579 63.3H964.279V61.3H934.579V63.3ZM963.568 63.003L989.368 89.103L990.79 87.697L964.99 61.597L963.568 63.003ZM989.079 88.4V218H991.079V88.4H989.079Z" fill="#EDEDED" mask="url(#path-1-outside-1_1_11)"/>
</g>
<g filter="url(#filter1_d_1_11)">
<mask id="path-3-outside-2_1_11" maskUnits="userSpaceOnUse" x="725" y="246" width="648" height="213" fill="black">
<rect fill="white" x="725" y="246" width="648" height="213"/>
<path d="M856.346 458H826.946V380.3H756.446V458H726.746V276.8L752.846 250.7H856.346V458ZM845.546 276.8H756.446V376.7L778.946 354.2H826.946V295.4L845.546 276.8ZM1015.66 354.2L985.961 383.9V328.4H941.861V458H912.161V302.3H941.861V324.8L963.461 302.3H989.861L1015.66 328.4V354.2ZM1080.73 276.8H1051.03V247.1H1080.73V276.8ZM1080.73 458H1051.03V325.1L1080.73 295.1V458ZM1232.37 458H1202.67V435.8L1180.47 458H1150.77L1124.97 431.9V380.3L1150.77 354.2H1199.67L1175.07 380H1154.37V431.9H1202.67V328.4H1121.07L1143.27 302.3H1206.57L1232.37 328.4V458ZM1370.37 328.4H1296.27V354.2H1337.07L1363.17 380.3V431.9L1337.07 458H1266.57V431.9H1333.47V380.3H1292.67L1266.57 354.2V328.4L1292.67 302.3H1343.97L1370.37 328.4Z"/>
</mask>
<path d="M856.346 458H826.946V380.3H756.446V458H726.746V276.8L752.846 250.7H856.346V458ZM845.546 276.8H756.446V376.7L778.946 354.2H826.946V295.4L845.546 276.8ZM1015.66 354.2L985.961 383.9V328.4H941.861V458H912.161V302.3H941.861V324.8L963.461 302.3H989.861L1015.66 328.4V354.2ZM1080.73 276.8H1051.03V247.1H1080.73V276.8ZM1080.73 458H1051.03V325.1L1080.73 295.1V458ZM1232.37 458H1202.67V435.8L1180.47 458H1150.77L1124.97 431.9V380.3L1150.77 354.2H1199.67L1175.07 380H1154.37V431.9H1202.67V328.4H1121.07L1143.27 302.3H1206.57L1232.37 328.4V458ZM1370.37 328.4H1296.27V354.2H1337.07L1363.17 380.3V431.9L1337.07 458H1266.57V431.9H1333.47V380.3H1292.67L1266.57 354.2V328.4L1292.67 302.3H1343.97L1370.37 328.4Z" fill="#250069"/>
<path d="M856.346 458V459H857.346V458H856.346ZM826.946 458H825.946V459H826.946V458ZM826.946 380.3H827.946V379.3H826.946V380.3ZM756.446 380.3V379.3H755.446V380.3H756.446ZM756.446 458V459H757.446V458H756.446ZM726.746 458H725.746V459H726.746V458ZM726.746 276.8L726.039 276.093L725.746 276.386V276.8H726.746ZM752.846 250.7V249.7H752.432L752.139 249.993L752.846 250.7ZM856.346 250.7H857.346V249.7H856.346V250.7ZM845.546 276.8L846.254 277.507L847.961 275.8H845.546V276.8ZM756.446 276.8V275.8H755.446V276.8H756.446ZM756.446 376.7H755.446V379.114L757.154 377.407L756.446 376.7ZM778.946 354.2V353.2H778.532L778.239 353.493L778.946 354.2ZM826.946 354.2V355.2H827.946V354.2H826.946ZM826.946 295.4L826.239 294.693L825.946 294.986V295.4H826.946ZM856.346 457H826.946V459H856.346V457ZM827.946 458V380.3H825.946V458H827.946ZM826.946 379.3H756.446V381.3H826.946V379.3ZM755.446 380.3V458H757.446V380.3H755.446ZM756.446 457H726.746V459H756.446V457ZM727.746 458V276.8H725.746V458H727.746ZM727.454 277.507L753.554 251.407L752.139 249.993L726.039 276.093L727.454 277.507ZM752.846 251.7H856.346V249.7H752.846V251.7ZM855.346 250.7V458H857.346V250.7H855.346ZM845.546 275.8H756.446V277.8H845.546V275.8ZM755.446 276.8V376.7H757.446V276.8H755.446ZM757.154 377.407L779.654 354.907L778.239 353.493L755.739 375.993L757.154 377.407ZM778.946 355.2H826.946V353.2H778.946V355.2ZM827.946 354.2V295.4H825.946V354.2H827.946ZM827.654 296.107L846.254 277.507L844.839 276.093L826.239 294.693L827.654 296.107ZM1015.66 354.2L1016.37 354.907L1016.66 354.614V354.2H1015.66ZM985.961 383.9H984.961V386.314L986.668 384.607L985.961 383.9ZM985.961 328.4H986.961V327.4H985.961V328.4ZM941.861 328.4V327.4H940.861V328.4H941.861ZM941.861 458V459H942.861V458H941.861ZM912.161 458H911.161V459H912.161V458ZM912.161 302.3V301.3H911.161V302.3H912.161ZM941.861 302.3H942.861V301.3H941.861V302.3ZM941.861 324.8H940.861V327.286L942.582 325.493L941.861 324.8ZM963.461 302.3V301.3H963.034L962.739 301.607L963.461 302.3ZM989.861 302.3L990.572 301.597L990.278 301.3H989.861V302.3ZM1015.66 328.4H1016.66V327.989L1016.37 327.697L1015.66 328.4ZM1014.95 353.493L985.253 383.193L986.668 384.607L1016.37 354.907L1014.95 353.493ZM986.961 383.9V328.4H984.961V383.9H986.961ZM985.961 327.4H941.861V329.4H985.961V327.4ZM940.861 328.4V458H942.861V328.4H940.861ZM941.861 457H912.161V459H941.861V457ZM913.161 458V302.3H911.161V458H913.161ZM912.161 303.3H941.861V301.3H912.161V303.3ZM940.861 302.3V324.8H942.861V302.3H940.861ZM942.582 325.493L964.182 302.993L962.739 301.607L941.139 324.107L942.582 325.493ZM963.461 303.3H989.861V301.3H963.461V303.3ZM989.149 303.003L1014.95 329.103L1016.37 327.697L990.572 301.597L989.149 303.003ZM1014.66 328.4V354.2H1016.66V328.4H1014.66ZM1080.73 276.8V277.8H1081.73V276.8H1080.73ZM1051.03 276.8H1050.03V277.8H1051.03V276.8ZM1051.03 247.1V246.1H1050.03V247.1H1051.03ZM1080.73 247.1H1081.73V246.1H1080.73V247.1ZM1080.73 458V459H1081.73V458H1080.73ZM1051.03 458H1050.03V459H1051.03V458ZM1051.03 325.1L1050.32 324.396L1050.03 324.689V325.1H1051.03ZM1080.73 295.1H1081.73V292.669L1080.02 294.396L1080.73 295.1ZM1080.73 275.8H1051.03V277.8H1080.73V275.8ZM1052.03 276.8V247.1H1050.03V276.8H1052.03ZM1051.03 248.1H1080.73V246.1H1051.03V248.1ZM1079.73 247.1V276.8H1081.73V247.1H1079.73ZM1080.73 457H1051.03V459H1080.73V457ZM1052.03 458V325.1H1050.03V458H1052.03ZM1051.74 325.804L1081.44 295.804L1080.02 294.396L1050.32 324.396L1051.74 325.804ZM1079.73 295.1V458H1081.73V295.1H1079.73ZM1232.37 458V459H1233.37V458H1232.37ZM1202.67 458H1201.67V459H1202.67V458ZM1202.67 435.8H1203.67V433.386L1201.97 435.093L1202.67 435.8ZM1180.47 458V459H1180.89L1181.18 458.707L1180.47 458ZM1150.77 458L1150.06 458.703L1150.36 459H1150.77V458ZM1124.97 431.9H1123.97V432.311L1124.26 432.603L1124.97 431.9ZM1124.97 380.3L1124.26 379.597L1123.97 379.889V380.3H1124.97ZM1150.77 354.2V353.2H1150.36L1150.06 353.497L1150.77 354.2ZM1199.67 354.2L1200.4 354.89L1202.01 353.2H1199.67V354.2ZM1175.07 380V381H1175.5L1175.8 380.69L1175.07 380ZM1154.37 380V379H1153.37V380H1154.37ZM1154.37 431.9H1153.37V432.9H1154.37V431.9ZM1202.67 431.9V432.9H1203.67V431.9H1202.67ZM1202.67 328.4H1203.67V327.4H1202.67V328.4ZM1121.07 328.4L1120.31 327.752L1118.91 329.4H1121.07V328.4ZM1143.27 302.3V301.3H1142.81L1142.51 301.652L1143.27 302.3ZM1206.57 302.3L1207.28 301.597L1206.99 301.3H1206.57V302.3ZM1232.37 328.4H1233.37V327.989L1233.08 327.697L1232.37 328.4ZM1232.37 457H1202.67V459H1232.37V457ZM1203.67 458V435.8H1201.67V458H1203.67ZM1201.97 435.093L1179.77 457.293L1181.18 458.707L1203.38 436.507L1201.97 435.093ZM1180.47 457H1150.77V459H1180.47V457ZM1151.48 457.297L1125.68 431.197L1124.26 432.603L1150.06 458.703L1151.48 457.297ZM1125.97 431.9V380.3H1123.97V431.9H1125.97ZM1125.68 381.003L1151.48 354.903L1150.06 353.497L1124.26 379.597L1125.68 381.003ZM1150.77 355.2H1199.67V353.2H1150.77V355.2ZM1198.95 353.51L1174.35 379.31L1175.8 380.69L1200.4 354.89L1198.95 353.51ZM1175.07 379H1154.37V381H1175.07V379ZM1153.37 380V431.9H1155.37V380H1153.37ZM1154.37 432.9H1202.67V430.9H1154.37V432.9ZM1203.67 431.9V328.4H1201.67V431.9H1203.67ZM1202.67 327.4H1121.07V329.4H1202.67V327.4ZM1121.83 329.048L1144.03 302.948L1142.51 301.652L1120.31 327.752L1121.83 329.048ZM1143.27 303.3H1206.57V301.3H1143.27V303.3ZM1205.86 303.003L1231.66 329.103L1233.08 327.697L1207.28 301.597L1205.86 303.003ZM1231.37 328.4V458H1233.37V328.4H1231.37ZM1370.37 328.4V329.4H1372.81L1371.08 327.689L1370.37 328.4ZM1296.27 328.4V327.4H1295.27V328.4H1296.27ZM1296.27 354.2H1295.27V355.2H1296.27V354.2ZM1337.07 354.2L1337.78 353.493L1337.49 353.2H1337.07V354.2ZM1363.17 380.3H1364.17V379.886L1363.88 379.593L1363.17 380.3ZM1363.17 431.9L1363.88 432.607L1364.17 432.314V431.9H1363.17ZM1337.07 458V459H1337.49L1337.78 458.707L1337.07 458ZM1266.57 458H1265.57V459H1266.57V458ZM1266.57 431.9V430.9H1265.57V431.9H1266.57ZM1333.47 431.9V432.9H1334.47V431.9H1333.47ZM1333.47 380.3H1334.47V379.3H1333.47V380.3ZM1292.67 380.3L1291.97 381.007L1292.26 381.3H1292.67V380.3ZM1266.57 354.2H1265.57V354.614L1265.87 354.907L1266.57 354.2ZM1266.57 328.4L1265.87 327.693L1265.57 327.986V328.4H1266.57ZM1292.67 302.3V301.3H1292.26L1291.97 301.593L1292.67 302.3ZM1343.97 302.3L1344.68 301.589L1344.38 301.3H1343.97V302.3ZM1370.37 327.4H1296.27V329.4H1370.37V327.4ZM1295.27 328.4V354.2H1297.27V328.4H1295.27ZM1296.27 355.2H1337.07V353.2H1296.27V355.2ZM1336.37 354.907L1362.47 381.007L1363.88 379.593L1337.78 353.493L1336.37 354.907ZM1362.17 380.3V431.9H1364.17V380.3H1362.17ZM1362.47 431.193L1336.37 457.293L1337.78 458.707L1363.88 432.607L1362.47 431.193ZM1337.07 457H1266.57V459H1337.07V457ZM1267.57 458V431.9H1265.57V458H1267.57ZM1266.57 432.9H1333.47V430.9H1266.57V432.9ZM1334.47 431.9V380.3H1332.47V431.9H1334.47ZM1333.47 379.3H1292.67V381.3H1333.47V379.3ZM1293.38 379.593L1267.28 353.493L1265.87 354.907L1291.97 381.007L1293.38 379.593ZM1267.57 354.2V328.4H1265.57V354.2H1267.57ZM1267.28 329.107L1293.38 303.007L1291.97 301.593L1265.87 327.693L1267.28 329.107ZM1292.67 303.3H1343.97V301.3H1292.67V303.3ZM1343.27 303.011L1369.67 329.111L1371.08 327.689L1344.68 301.589L1343.27 303.011Z" fill="#EDEDED" mask="url(#path-3-outside-2_1_11)"/>
</g>
<defs>
<filter id="filter0_d_1_11" x="44.8969" y="7.10001" width="949.182" height="218.9" filterUnits="userSpaceOnUse" color-interpolation-filters="sRGB">
<feFlood flood-opacity="0" result="BackgroundImageFix"/>
<feColorMatrix in="SourceAlpha" type="matrix" values="0 0 0 0 0 0 0 0 0 0 0 0 0 0 0 0 0 0 127 0" result="hardAlpha"/>
<feOffset dy="4"/>
<feGaussianBlur stdDeviation="2"/>
<feComposite in2="hardAlpha" operator="out"/>
<feColorMatrix type="matrix" values="0 0 0 0 0 0 0 0 0 0 0 0 0 0 0 0 0 0 0.25 0"/>
<feBlend mode="normal" in2="BackgroundImageFix" result="effect1_dropShadow_1_11"/>
<feBlend mode="normal" in="SourceGraphic" in2="effect1_dropShadow_1_11" result="shape"/>
</filter>
<filter id="filter1_d_1_11" x="722.746" y="247.1" width="651.627" height="218.9" filterUnits="userSpaceOnUse" color-interpolation-filters="sRGB">
<feFlood flood-opacity="0" result="BackgroundImageFix"/>
<feColorMatrix in="SourceAlpha" type="matrix" values="0 0 0 0 0 0 0 0 0 0 0 0 0 0 0 0 0 0 127 0" result="hardAlpha"/>
<feOffset dy="4"/>
<feGaussianBlur stdDeviation="2"/>
<feComposite in2="hardAlpha" operator="out"/>
<feColorMatrix type="matrix" values="0 0 0 0 0 0 0 0 0 0 0 0 0 0 0 0 0 0 0.25 0"/>
<feBlend mode="normal" in2="BackgroundImageFix" result="effect1_dropShadow_1_11"/>
<feBlend mode="normal" in="SourceGraphic" in2="effect1_dropShadow_1_11" result="shape"/>
</filter>
</defs>
</svg>
